<svg width="29" height="46" viewBox="0 0 29 46" fill="none" xmlns="http://www.w3.org/2000/svg">
<g clip-path="url(#clip0_90_753)">
<path d="M28.72 1.9L19.02 15.79C18.46 16.59 19.04 17.69 20.01 17.69L27.41 17.66C28.45 17.66 29.01 18.89 28.31 19.67L5.94002 44.67C5.02002 45.7 3.38002 44.63 3.94002 43.37L10.11 29.69C10.47 28.89 9.88002 27.98 9.00002 27.99L1.22002 28.08C0.360024 28.09 -0.239976 27.22 0.090024 26.42L10.48 0.82C10.66 0.37 11.1 0.07 11.59 0.07L27.72 0C28.7 0 29.27 1.09 28.71 1.9H28.72Z" fill="#F2732E"/>
</g>
<defs>
<clipPath id="clip0_90_753">
<rect width="28.93" height="45.09" fill="white"/>
</clipPath>
</defs>
</svg>
